<svg width="46" height="58" viewBox="0 0 46 58" fill="none" xmlns="http://www.w3.org/2000/svg">
<path d="M31.3369 26.0661L26.264 25.3266L23.9967 20.7293C23.5904 19.9099 22.4133 19.8995 22.0036 20.7293L19.7362 25.3266L14.6633 26.0661C13.7536 26.1981 13.389 27.3196 14.0487 27.962L17.7189 31.5384L16.8508 36.5904C16.6946 37.5036 17.6564 38.1877 18.4619 37.7606L23.0001 35.3752L27.5383 37.7606C28.3439 38.1842 29.3057 37.5036 29.1494 36.5904L28.2814 31.5384L31.9515 27.962C32.6112 27.3196 32.2467 26.1981 31.3369 26.0661ZM26.4932 30.955L27.3161 35.7606L23.0001 33.4932L18.6842 35.7606L19.5071 30.955L16.014 27.5523L20.8404 26.8509L23.0001 22.4759L25.1598 26.8509L29.9862 27.5523L26.4932 30.955Z" fill="#072A48"/>
</svg>
