<svg width="46" height="58" viewBox="0 0 46 58" fill="none" xmlns="http://www.w3.org/2000/svg">
<g clip-path="url(#clip0_1_1635)">
<path d="M26.5 30.875C25.3789 30.875 24.8398 31.5 23 31.5C21.1602 31.5 20.625 30.875 19.5 30.875C16.6016 30.875 14.25 33.2266 14.25 36.125V37.125C14.25 38.1602 15.0898 39 16.125 39H29.875C30.9102 39 31.75 38.1602 31.75 37.125V36.125C31.75 33.2266 29.3984 30.875 26.5 30.875ZM29.875 37.125H16.125V36.125C16.125 34.2656 17.6406 32.75 19.5 32.75C20.0703 32.75 20.9961 33.375 23 33.375C25.0195 33.375 25.9258 32.75 26.5 32.75C28.3594 32.75 29.875 34.2656 29.875 36.125V37.125ZM23 30.25C26.1055 30.25 28.625 27.7305 28.625 24.625C28.625 21.5195 26.1055 19 23 19C19.8945 19 17.375 21.5195 17.375 24.625C17.375 27.7305 19.8945 30.25 23 30.25ZM23 20.875C25.0664 20.875 26.75 22.5586 26.75 24.625C26.75 26.6914 25.0664 28.375 23 28.375C20.9336 28.375 19.25 26.6914 19.25 24.625C19.25 22.5586 20.9336 20.875 23 20.875Z" fill="#072A48" stroke="#072A48" stroke-width="0.0390625"/>
</g>
<defs>
<clipPath id="clip0_1_1635">
<rect width="20" height="20" fill="white" transform="translate(13 19)"/>
</clipPath>
</defs>
</svg>
