<svg width="52" height="42" viewBox="0 0 52 42" fill="none" xmlns="http://www.w3.org/2000/svg">
<g clip-path="url(#clip0_1_1632)">
<path d="M34.877 28.4848L30.609 24.2168C30.5281 24.1359 30.4227 24.0938 30.3102 24.0938H29.8461C30.9535 22.8105 31.625 21.1406 31.625 19.3125C31.625 15.273 28.352 12 24.3125 12C20.273 12 17 15.273 17 19.3125C17 23.352 20.273 26.625 24.3125 26.625C26.1406 26.625 27.8105 25.9535 29.0938 24.8461V25.3102C29.0938 25.4227 29.1395 25.5281 29.2168 25.609L33.4848 29.877C33.65 30.0422 33.9172 30.0422 34.0824 29.877L34.877 29.0824C35.0422 28.9172 35.0422 28.65 34.877 28.4848ZM24.3125 24.9375C21.2047 24.9375 18.6875 22.4203 18.6875 19.3125C18.6875 16.2047 21.2047 13.6875 24.3125 13.6875C27.4203 13.6875 29.9375 16.2047 29.9375 19.3125C29.9375 22.4203 27.4203 24.9375 24.3125 24.9375Z" fill="#072A48" stroke="#072A48" stroke-width="0.0351562"/>
</g>
<defs>
<clipPath id="clip0_1_1632">
<rect width="18" height="18.0009" fill="white" transform="translate(17 12)"/>
</clipPath>
</defs>
</svg>
