<svg width="38" height="46" viewBox="0 0 38 46" fill="none" xmlns="http://www.w3.org/2000/svg">
<g clip-path="url(#clip0_1_1641)">
<path d="M28 18C28 15.243 25.757 13 23 13C20.243 13 18 15.243 18 18H14.25V29.875C14.25 31.6009 15.6491 33 17.375 33H28.625C30.3509 33 31.75 31.6009 31.75 29.875V18H28ZM23 14.875C24.7231 14.875 26.125 16.2769 26.125 18H19.875C19.875 16.2769 21.2769 14.875 23 14.875ZM29.875 29.875C29.875 30.5643 29.3143 31.125 28.625 31.125H17.375C16.6857 31.125 16.125 30.5643 16.125 29.875V19.875H18V21.4375C18 21.9553 18.4197 22.375 18.9375 22.375C19.4553 22.375 19.875 21.9553 19.875 21.4375V19.875H26.125V21.4375C26.125 21.9553 26.5447 22.375 27.0625 22.375C27.5803 22.375 28 21.9553 28 21.4375V19.875H29.875V29.875Z" fill="#072A48" stroke="#072A48" stroke-width="0.0390625"/>
</g>
<defs>
<clipPath id="clip0_1_1641">
<rect width="20" height="20" fill="white" transform="translate(13 13)"/>
</clipPath>
</defs>
</svg>
