<svg width="182" height="58" viewBox="0 0 182 58" fill="none" xmlns="http://www.w3.org/2000/svg">
<g clip-path="url(#clip0_1_1631)">
<path d="M34.877 36.4848L30.609 32.2168C30.5281 32.1359 30.4227 32.0938 30.3102 32.0938H29.8461C30.9535 30.8105 31.625 29.1406 31.625 27.3125C31.625 23.273 28.352 20 24.3125 20C20.273 20 17 23.273 17 27.3125C17 31.352 20.273 34.625 24.3125 34.625C26.1406 34.625 27.8105 33.9535 29.0938 32.8461V33.3102C29.0938 33.4227 29.1395 33.5281 29.2168 33.609L33.4848 37.877C33.65 38.0422 33.9172 38.0422 34.0824 37.877L34.877 37.0824C35.0422 36.9172 35.0422 36.65 34.877 36.4848ZM24.3125 32.9375C21.2047 32.9375 18.6875 30.4203 18.6875 27.3125C18.6875 24.2047 21.2047 21.6875 24.3125 21.6875C27.4203 21.6875 29.9375 24.2047 29.9375 27.3125C29.9375 30.4203 27.4203 32.9375 24.3125 32.9375Z" fill="#072A48" stroke="#072A48" stroke-width="0.0351562"/>
</g>
<g clip-path="url(#clip1_1_1631)">
<path d="M78.5 30.875C77.3789 30.875 76.8398 31.5 75 31.5C73.1602 31.5 72.625 30.875 71.5 30.875C68.6016 30.875 66.25 33.2266 66.25 36.125V37.125C66.25 38.1602 67.0898 39 68.125 39H81.875C82.9102 39 83.75 38.1602 83.75 37.125V36.125C83.75 33.2266 81.3984 30.875 78.5 30.875ZM81.875 37.125H68.125V36.125C68.125 34.2656 69.6406 32.75 71.5 32.75C72.0703 32.75 72.9961 33.375 75 33.375C77.0195 33.375 77.9258 32.75 78.5 32.75C80.3594 32.75 81.875 34.2656 81.875 36.125V37.125ZM75 30.25C78.1055 30.25 80.625 27.7305 80.625 24.625C80.625 21.5195 78.1055 19 75 19C71.8945 19 69.375 21.5195 69.375 24.625C69.375 27.7305 71.8945 30.25 75 30.25ZM75 20.875C77.0664 20.875 78.75 22.5586 78.75 24.625C78.75 26.6914 77.0664 28.375 75 28.375C72.9336 28.375 71.25 26.6914 71.25 24.625C71.25 22.5586 72.9336 20.875 75 20.875Z" fill="#072A48" stroke="#072A48" stroke-width="0.0390625"/>
</g>
<path d="M129.337 26.0661L124.264 25.3266L121.997 20.7293C121.59 19.9099 120.413 19.8995 120.004 20.7293L117.736 25.3266L112.663 26.0661C111.754 26.1981 111.389 27.3196 112.049 27.962L115.719 31.5384L114.851 36.5904C114.695 37.5036 115.656 38.1877 116.462 37.7606L121 35.3752L125.538 37.7606C126.344 38.1842 127.306 37.5036 127.149 36.5904L126.281 31.5384L129.952 27.962C130.611 27.3196 130.247 26.1981 129.337 26.0661ZM124.493 30.955L125.316 35.7606L121 33.4932L116.684 35.7606L117.507 30.955L114.014 27.5523L118.84 26.8509L121 22.4759L123.16 26.8509L127.986 27.5523L124.493 30.955Z" fill="#072A48"/>
<g clip-path="url(#clip2_1_1631)">
<path d="M172 24C172 21.243 169.757 19 167 19C164.243 19 162 21.243 162 24H158.25V35.875C158.25 37.6009 159.649 39 161.375 39H172.625C174.351 39 175.75 37.6009 175.75 35.875V24H172ZM167 20.875C168.723 20.875 170.125 22.2769 170.125 24H163.875C163.875 22.2769 165.277 20.875 167 20.875ZM173.875 35.875C173.875 36.5643 173.314 37.125 172.625 37.125H161.375C160.686 37.125 160.125 36.5643 160.125 35.875V25.875H162V27.4375C162 27.9553 162.42 28.375 162.938 28.375C163.455 28.375 163.875 27.9553 163.875 27.4375V25.875H170.125V27.4375C170.125 27.9553 170.545 28.375 171.062 28.375C171.58 28.375 172 27.9553 172 27.4375V25.875H173.875V35.875Z" fill="#072A48" stroke="#072A48" stroke-width="0.0390625"/>
</g>
<defs>
<clipPath id="clip0_1_1631">
<rect width="18" height="18.0009" fill="white" transform="translate(17 20)"/>
</clipPath>
<clipPath id="clip1_1_1631">
<rect width="20" height="20" fill="white" transform="translate(65 19)"/>
</clipPath>
<clipPath id="clip2_1_1631">
<rect width="20" height="20" fill="white" transform="translate(157 19)"/>
</clipPath>
</defs>
</svg>
